<svg width="22" height="22" viewBox="0 0 22 22" fill="none" xmlns="http://www.w3.org/2000/svg">
<g id="tabler-icon-copyright">
<path id="Vector" d="M12.495 8.70151C11.9747 8.24431 11.2983 8.00523 10.6063 8.03399C9.91431 8.06275 9.26003 8.35713 8.77951 8.85591C8.29971 9.35375 8.03162 10.0182 8.03162 10.7096C8.03162 11.401 8.29971 12.0655 8.77951 12.5634C9.26003 13.0621 9.91431 13.3565 10.6063 13.3853C11.2983 13.414 11.9747 13.175 12.495 12.7178M2.67749 10.7096C2.67749 11.7644 2.88526 12.809 3.28893 13.7835C3.6926 14.7581 4.28427 15.6435 5.03015 16.3894C5.77604 17.1353 6.66154 17.727 7.63609 18.1307C8.61063 18.5343 9.65515 18.7421 10.71 18.7421C11.7648 18.7421 12.8093 18.5343 13.7839 18.1307C14.7584 17.727 15.6439 17.1353 16.3898 16.3894C17.1357 15.6435 17.7274 14.7581 18.1311 13.7835C18.5347 12.809 18.7425 11.7644 18.7425 10.7096C18.7425 9.65476 18.5347 8.61024 18.1311 7.6357C17.7274 6.66115 17.1357 5.77565 16.3898 5.02977C15.6439 4.28388 14.7584 3.69221 13.7839 3.28854C12.8093 2.88487 11.7648 2.6771 10.71 2.6771C9.65515 2.6771 8.61063 2.88487 7.63609 3.28854C6.66154 3.69221 5.77604 4.28388 5.03015 5.02977C4.28427 5.77565 3.6926 6.66115 3.28893 7.6357C2.88526 8.61024 2.67749 9.65476 2.67749 10.7096Z" stroke="#EDEDED" stroke-width="1.785" stroke-linecap="round" stroke-linejoin="round"/>
</g>
</svg>
